<?xml version="1.0" encoding="UTF-8" standalone="no"?>
<!DOCTYPE svg PUBLIC "-//W3C//DTD SVG 1.1//EN" "http://www.w3.org/Graphics/SVG/1.1/DTD/svg11.dtd">
<svg width="100%" height="100%" viewBox="0 0 193 222" version="1.1" xmlns="http://www.w3.org/2000/svg" xmlns:xlink="http://www.w3.org/1999/xlink" xml:space="preserve" xmlns:serif="http://www.serif.com/" style="fill-rule:evenodd;clip-rule:evenodd;stroke-linejoin:round;stroke-miterlimit:1.41421;">
    <g id="g3312">
        <g id="rect2804" transform="matrix(1,0,0,1,-50.06,-35.89)">
            <path d="M50.24,91.2L146.34,35.89L242.07,91.25L241.91,202.18L146.07,257.61L50.07,202.18L50.2,91.18L50.24,91.2Z" style="fill:rgb(238,238,236);fill-rule:nonzero;"/>
        </g>
        <g id="path2730" transform="matrix(1,0,0,1,-50.06,-35.89)">
            <path d="M97.2,229.42L50.2,202.25L50.1,147.6C50.04,117.54 50.1,92.82 50.3,92.66C50.5,92.5 129.14,137.54 143.73,146.25L145.28,147.18L145.28,201.91C145.28,245.42 145.17,256.63 144.76,256.62C144.35,256.61 123.08,244.37 97.22,229.42L97.2,229.42Z" style="fill:rgb(221,218,69);fill-rule:nonzero;"/>
        </g>
        <g id="path2724" transform="matrix(1,0,0,1,-50.06,-35.89)">
            <path d="M147.34,201.86L147.34,147.19L151.61,144.7C174.61,131.25 241.94,92.61 242.07,92.7C242.2,92.79 242.24,117.36 242.25,147.28C242.25,192.05 242.18,201.79 241.72,202.22C241.42,202.51 222.26,213.66 199.14,226.99L152.55,253.9C150.968,254.866 149.335,255.747 147.66,256.54C147.49,256.54 147.34,231.94 147.34,201.86Z" style="fill:rgb(224,40,38);fill-rule:nonzero;"/>
        </g>
        <g id="path2720" transform="matrix(1,0,0,1,-50.06,-35.89)">
            <path d="M98.56,118C72.76,103 51.65,90.64 51.65,90.41C51.65,89.81 145.25,35.9 146.3,35.9C147.35,35.9 241.52,90.22 241.09,90.65C240.15,91.57 146.83,145.12 146.2,145.1C145.8,145.1 124.36,132.87 98.56,117.95L98.56,118Z" style="fill:rgb(48,74,150);fill-rule:nonzero;"/>
        </g>
    </g>
    <g transform="matrix(1,0,0,1,-50.06,-35.89)">
        <path d="M125.84,54.49L146.4,54.49C159.77,54.49 169.4,59.29 169.4,72.96C169.4,86.07 159.8,92.38 146.4,92.38L134.2,92.38L134.2,120.12L125.84,120.12L125.84,54.49ZM145.2,85.61C155.41,85.61 161,81.47 161,73C161,64.53 155.37,61.3 145.16,61.3L134.16,61.3L134.16,85.61L145.2,85.61ZM144.75,90.09L151.3,85.77L171.3,120.12L161.83,120.12L144.75,90.09Z" style="fill:white;fill-rule:nonzero;"/>
    </g>
    <g transform="matrix(1,0,0,1,-50.06,-35.89)">
        <path d="M175.72,170.09C175.72,148.92 188.45,136.01 205.85,136.01C213.01,135.928 219.883,138.867 224.77,144.1L220.2,149.54C216.613,145.526 211.452,143.266 206.07,143.35C192.84,143.35 184.35,153.51 184.35,169.87C184.35,186.23 192.15,196.7 206.15,196.7C210.86,196.7 215.39,195.29 217.98,192.85L217.98,175.76L204.08,175.76L204.08,168.84L225.6,168.84L225.6,196.43C221.38,200.83 214.19,204.05 205.36,204.05C188.05,204.05 175.72,191.4 175.72,170.09Z" style="fill:white;fill-rule:nonzero;"/>
    </g>
    <g transform="matrix(1,0,0,1,-50.06,-35.89)">
        <path d="M73.55,137.21L111.38,137.21L111.38,144.28L81.9,144.28L81.9,164.85L106.77,164.85L106.77,171.92L81.9,171.92L81.9,195.78L112.38,195.78L112.38,202.85L73.55,202.85L73.55,137.21Z" style="fill:white;fill-rule:nonzero;"/>
    </g>
</svg>
