<?xml version="1.0" standalone="no"?>
<!DOCTYPE svg PUBLIC "-//W3C//DTD SVG 20010904//EN"
 "http://www.w3.org/TR/2001/REC-SVG-20010904/DTD/svg10.dtd">
<svg version="1.0" xmlns="http://www.w3.org/2000/svg"
 width="888.000000pt" height="888.000000pt" viewBox="0 0 888.000000 888.000000"
 preserveAspectRatio="xMidYMid meet">
<metadata>
Created by potrace 1.14, written by Peter Selinger 2001-2017
</metadata>
<g transform="translate(0.000000,888.000000) scale(0.100000,-0.100000)"
fill="#000000" stroke="none">
<path d="M4400 8866 c-14 -7 -61 -32 -105 -56 -44 -23 -84 -46 -90 -50 -5 -4
-26 -17 -45 -27 -56 -31 -130 -72 -200 -111 -36 -20 -66 -40 -68 -44 -2 -4 -8
-8 -14 -8 -5 0 -39 -17 -74 -37 -36 -21 -77 -45 -92 -53 -67 -38 -188 -107
-226 -129 -22 -13 -62 -35 -88 -50 -25 -14 -75 -42 -110 -62 -35 -20 -85 -49
-113 -64 -27 -15 -54 -31 -60 -35 -5 -4 -26 -17 -45 -27 -55 -30 -163 -93
-180 -103 -8 -6 -58 -34 -110 -64 -52 -29 -183 -104 -290 -166 -107 -62 -212
-122 -233 -134 -21 -12 -119 -68 -219 -126 -100 -58 -200 -116 -222 -129 -23
-12 -74 -43 -114 -67 -40 -24 -75 -44 -77 -44 -3 0 -34 -18 -70 -40 -36 -22
-70 -40 -75 -40 -6 0 -10 -4 -10 -9 0 -5 -8 -11 -17 -15 -10 -3 -31 -14 -48
-24 -16 -10 -57 -34 -90 -52 -33 -18 -77 -44 -97 -57 -21 -12 -42 -23 -48 -23
-5 0 -10 -4 -10 -10 0 -5 -7 -10 -15 -10 -8 0 -15 -4 -15 -10 0 -5 -6 -10 -12
-10 -13 -1 -402 -229 -425 -249 -6 -6 -30 -20 -53 -32 -22 -12 -44 -29 -49
-38 -5 -9 -10 -970 -10 -2226 l-1 -2210 62 -35 c126 -71 166 -94 323 -185 155
-90 213 -123 265 -152 14 -8 39 -23 55 -33 17 -11 41 -24 54 -30 13 -6 35 -19
50 -29 14 -10 46 -29 71 -43 130 -72 165 -93 168 -100 2 -4 7 -8 12 -8 5 0 48
-23 97 -51 48 -29 113 -65 143 -82 30 -17 75 -43 100 -59 25 -15 57 -33 73
-39 15 -6 27 -15 27 -20 0 -5 5 -9 11 -9 6 0 71 -36 146 -80 74 -44 137 -80
139 -80 2 0 37 -19 77 -43 39 -24 131 -77 202 -118 72 -40 132 -76 135 -79 3
-3 23 -14 45 -25 22 -11 42 -22 45 -25 3 -3 16 -11 29 -18 13 -8 40 -23 60
-34 84 -47 558 -322 581 -336 14 -9 27 -17 30 -17 3 0 16 -8 30 -17 55 -35
152 -88 161 -88 5 0 9 -4 9 -10 0 -5 4 -10 9 -10 5 0 49 -23 98 -51 48 -29
112 -65 141 -81 30 -17 99 -57 154 -89 55 -32 101 -59 104 -59 2 0 27 -15 56
-33 72 -45 78 -47 113 -26 17 10 37 22 45 26 18 8 369 209 390 223 8 5 35 21
60 35 25 14 59 33 75 43 17 9 57 33 90 51 33 19 62 38 65 41 3 4 13 9 22 13 9
3 83 44 163 91 81 47 151 86 156 86 5 0 9 4 9 8 0 4 15 15 33 23 41 19 540
309 547 318 3 3 11 7 19 9 7 1 37 18 65 36 29 19 62 37 74 40 12 4 22 12 22
17 0 6 4 8 9 4 5 -3 12 -1 15 4 3 5 52 35 108 67 57 32 112 64 123 71 11 7 27
15 35 20 8 4 55 31 103 60 48 29 90 53 93 53 3 0 28 15 57 33 29 18 63 38 77
45 14 7 48 26 75 42 28 17 73 42 100 56 28 15 52 30 53 35 2 5 7 9 12 9 5 0
43 20 84 45 42 25 81 45 85 45 5 0 11 4 13 8 2 4 35 25 73 47 39 21 86 47 105
58 19 11 37 22 40 26 3 3 23 15 45 26 22 11 42 23 45 26 3 3 10 8 15 10 11 5
135 75 210 120 28 17 58 33 68 36 9 3 17 8 17 12 0 4 16 13 35 21 19 8 35 17
35 22 0 4 4 8 9 8 8 0 135 73 196 112 l30 20 4 121 c3 67 5 1063 5 2213 1
1944 0 2092 -16 2107 -9 9 -19 17 -23 17 -4 0 -26 14 -50 30 -24 17 -48 30
-54 30 -6 0 -11 3 -11 8 0 4 -29 23 -65 42 -36 19 -65 38 -65 43 0 4 -5 7 -10
7 -6 0 -29 12 -51 26 -23 14 -62 37 -87 51 -26 15 -65 38 -87 52 -22 14 -51
31 -65 38 -14 7 -38 21 -55 31 -37 23 -266 157 -315 184 -19 11 -60 35 -90 53
-30 18 -73 44 -96 56 -22 13 -118 69 -213 124 -95 55 -198 114 -229 132 -31
17 -61 35 -67 40 -5 5 -26 17 -45 26 -19 10 -51 28 -71 40 -20 12 -83 49 -140
81 -57 33 -107 64 -111 70 -4 6 -8 7 -8 3 0 -5 -13 1 -29 12 -16 12 -31 21
-34 21 -3 0 -35 18 -71 40 -36 22 -70 40 -76 40 -5 0 -10 3 -10 8 0 4 -19 16
-43 27 -23 11 -44 23 -47 26 -3 3 -21 14 -40 24 -19 9 -43 25 -54 34 -10 9
-20 15 -22 13 -3 -2 -31 13 -63 32 -32 20 -64 36 -70 36 -6 0 -11 4 -11 9 0 5
-8 11 -17 14 -10 4 -38 18 -63 33 -25 15 -65 38 -90 52 -25 14 -103 59 -175
100 -71 41 -150 86 -175 100 -25 13 -49 28 -55 32 -5 4 -32 20 -60 35 -88 49
-137 76 -287 162 -81 45 -151 83 -157 83 -5 0 -11 3 -13 8 -3 6 -140 82 -149
82 -2 0 -15 -6 -29 -14z"/>
</g>
</svg>
